# xmcd
#
# Track frame offsets:
#	150
#	5662
#	11370
#	17037
#	26383
#	44128
#	60905
#	75575
#	90776
#	95048
#	100470
#	107973
#	120915
#	125714
#	129564
#	134146
#	139165
#	153440
#	162768
#	169103
#	174525
#	184749
#	197785
#	204853
#	221140
#	225884
#	229984
#	234729
#
# Disc length: 3167 seconds
#
# Revision: 0
# Processed by: cddbd v1.5.2PL0 Copyright (c) Steve Scherf et al.
# Submitted via: dBpowerAMP V4.0
#
DISCID=790c5d1c
DTITLE=Shawn Lov - (csbRip) - Mix Cd
DYEAR=2007
DGENRE=HipHop
TTITLE0=1.Intro
TTITLE1=2.Atlantis
TTITLE2=3.Bare Essentials
TTITLE3=4.Alphabetical Order
TTITLE4=5.When It's Over
TTITLE5=6.Private Eye
TTITLE6=7.One
TTITLE7=8.48 Hours Ft PumpkinHead
TTITLE8=9.Respect Mines
TTITLE9=10.Monkey Wrenches
TTITLE10=11.Be
TTITLE11=12.Magik
TTITLE12=13.Raiders Of The Lost Art
TTITLE13=14.Saigon
TTITLE14=15.Prey
TTITLE15=16.Probably
TTITLE16=17.Im A Mess
TTITLE17=18.Dewwit
TTITLE18=19.Yeah!
TTITLE19=20.HipHop Lives
TTITLE20=21.Blaze 50
TTITLE21=22.Bloody Murder
TTITLE22=23.Feelin Us
TTITLE23=24.Tha Lov Doctor
TTITLE24=25.This Is It !
TTITLE25=26.Lov Sounds
TTITLE26=27.Respect This
TTITLE27=28.Outro
EXTD=
EXTT0=
EXTT1=
EXTT2=
EXTT3=
EXTT4=
EXTT5=
EXTT6=
EXTT7=
EXTT8=
EXTT9=
EXTT10=
EXTT11=
EXTT12=
EXTT13=
EXTT14=
EXTT15=
EXTT16=
EXTT17=
EXTT18=
EXTT19=
EXTT20=
EXTT21=
EXTT22=
EXTT23=
EXTT24=
EXTT25=
EXTT26=
EXTT27=
PLAYORDER=
